<svg id="Capa_1" data-name="Capa 1" xmlns="http://www.w3.org/2000/svg" viewBox="0 0 765.35 595.28"><defs><style>.cls-1{fill:#1d1e1f;}.cls-2{fill:#1f1f20;}.cls-3{fill:#1b1c1d;}.cls-4{fill:#222223;}.cls-5{fill:#434444;}.cls-6{fill:#555;}.cls-7{fill:#3a3b3b;}.cls-8{fill:#7b7b7a;}.cls-9{fill:#6d6c6c;}.cls-10{fill:#f5f5f5;}.cls-11{fill:#c6c5c5;}.cls-12{fill:#dcdbdb;}</style></defs><path class="cls-1" d="M306.28,263c4.32.12,8.26,2.11,12.72,2.06,7.56-.09,12.14-4.37,14.38-10.5,4.2-11.52,2.51-22.54-5.81-32-4.14-4.71-16-7-22.36-4.16-7.17,3.19-12.89,8-15.07,16a10.21,10.21,0,0,0-.32,5.14c6.22-1.79,10.68-.63,12.89,3.33,1.33,2.39.52,5.7-1.77,6.76-1.82.84-3.71.86-5.2-.65-1.27-1.3-.67-2.91,1.88-5.7a4,4,0,0,0-4.91-.8c-1.82,1-1.81,2.85-1.82,4.57a15,15,0,0,0,1.56,5.69c3.87,9.52,10.07,18.14,11.69,28.51,4.29,27.45-9.64,51.74-36.65,58.16-14.29,3.41-26.73-1.75-37.1-11.85a34.67,34.67,0,0,1-6.86-8.34c-1-1.9-1.7-1.77-3.1-.17-6.37,7.29-13.74,12.93-23.86,13.91-9.94,1-18.19-1.92-24.21-10.17a8.72,8.72,0,0,1-1.55-2.53c-.5-1.84-1.69-4.2.66-5.31,2.12-1,3.79.74,4.85,2.5a48.73,48.73,0,0,1,3,6c1.68,3.95,4.69,5.64,8.84,6.48,11.6,2.34,19.61-3.48,26.87-11.21a42.9,42.9,0,0,0,3.65-4.71,7.9,7.9,0,0,0,1.15-6.7c-2.3-10.73-1.73-21,5.29-30.19l-.13.11q1.56-1.85,3.13-3.68c2.72-1.65,5.2-3.64,8.35-4.66,2.14-.7,2.89-2.63,1.46-4.81l0-2.4c1.86-4.9,2.31-10.15,3.58-15.2,1-3.86,3.59-5.45,7-6.33.94-.24,2-.5,2.84.27s.15,2-.18,2.74c-2.89,6.67-3.61,13.94-5.93,20.75-1.14,3.37-.2,4.48,3.23,5.38,7.66,2,13.93,6.38,16.57,14.14,2.07,6.06,1.67,12.29-2.17,17.84a4.3,4.3,0,0,1-2.29,1.57c1.68-3.49,3.47-6.8,2.87-10.76-1.52-10-8.68-17.59-18.64-19.18-1.92-.31-2.57.64-3.09,2.32-2,6.42-3.93,12.85-6.22,19.15a58.08,58.08,0,0,1-7.87,15.18c-2.81,3.71-1.94,6.88.34,9.67,6,7.33,12.46,14.05,22.16,16.88,12.86,3.75,23,.06,32.09-9.25,5.45-5.57,10.57-11.11,13.58-18.42a45.26,45.26,0,0,0-.51-36.91c-2.9-6.6-6.06-13.1-8.81-19.76-6.77-16.36,5.06-36.17,19.86-39.07,19.61-3.84,33.86,7.93,35.62,27a34,34,0,0,1-1.94,14c-4,12.09-20.82,19.77-32.08,11.62-.67-.49-2.43-.51-1.6-2.2ZM223.92,305.1c5.22-9.27,7.73-19.31,11.18-29.29C225.51,279,220.7,294.43,223.92,305.1Z"/><path class="cls-1" d="M184.82,122.94c-2.56,2.24-5.8,2.83-8.06,5a33.52,33.52,0,0,0-8.37,13.1c-5,14.31-10.17,28.57-13.06,43.51-1.16,6-.81,11.86,2.15,17.37.35.66,1,1.37.15,1.93-.66.44-1.47,0-2.06-.49-2.55-2-3.83-5-4.92-7.81-3.25-8.48-7.63-16.46-11-24.87-2.65-6.57-5.21-13.18-7.84-19.75a25.61,25.61,0,0,0-1.41-2.55c-1.16,2.13-.94,4.06-1,6-.25,10.71-.8,21.4-3,31.93a25.51,25.51,0,0,1-2.88,7.61c-3.29,5.64-9.8,8.15-16.64,6.57-.28-.72.27-.86.73-.95,8.5-1.78,12.11-7.58,13.79-15.62a187.54,187.54,0,0,0,4.17-33.6c.27-10.13-5-17.06-14-18.7-10-1.82-19.58,3.12-22.52,12.17a20.36,20.36,0,0,0,17.52,26.82c.7.06,1.55-.2,2.2,1.17-5.6,1.39-10.24-.52-14.63-3.35-8.47-5.46-11.42-13.59-9.33-23,2.13-9.61,7.79-16.31,17.86-19.58,10.67-3.46,24.43,5.09,29.32,13,5.76,9.35,9.09,19.56,12.5,29.82,1,3,2.34,5.92,3.48,8.89.33.84.65,1.83,1.63,1.77,1.41-.07.58-1.34.79-2.06,4.09-14.35,7.7-28.93,15.86-41.69C169.75,130,174.3,125.17,181,123,182.1,122.6,183.14,121.74,184.82,122.94Z"/><path class="cls-2" d="M165.29,213,163,212.7c-.92-.83-2-.6-3-.38-12.06-1-23.49,1.07-34,7.35-13.6,8.16-21.63,19.87-22.35,36-.21,4.61,1,8.88,4.59,12.15.66.59,1.36,1.34,2.24,1s.56-1.31.6-2a70.6,70.6,0,0,1,2.69-15.32c3.46-12.6,11-22.15,21.78-29.21,7.57-5,16.89.08,17.19,9.13.07,2.1-.18,4.21-.29,6.32h-1.31l.15-3c.65-.46.69-1,.08-1.49l-.32-1.55a1.22,1.22,0,0,0-.37-1.42c-5.2-7.76-8.92-8.51-15.24-3.26a41,41,0,0,0-9.6,10.83c-5.65,9.77-9.25,20.08-7.63,31.63.18,1.24.13,2.76,2,2.44,5.75-1,11.54-1.8,16-6.25a56.91,56.91,0,0,0,7.3-9.38l.74,1.64c-4.91,8.87-11.7,15.44-22,17.5-2.49.5-2.91,1.3-2,3.63,3.49,9.17,8.22,17.21,17.39,21.94a24,24,0,0,0,27.3-3.9c1.71-1.67,1.4-5,4.49-5.38-2.25,13-21.67,19.41-31.95,14.66-12.74-5.89-20.37-15.37-24.06-28.51a4.34,4.34,0,0,0-2.55-3.32c-8.77-3.63-11.69-11-12-19.71-.65-18,8.63-32.36,25-39.6,9.24-4.07,18.72-6.54,28.93-6,4.27.23,8.28,1.52,12.41,2.38Z"/><path class="cls-3" d="M197.93,196.62l-.42-3.11c-.07-1.52-1.12-2.86-.8-4.46l.27-.72a1.18,1.18,0,0,0,.55-1.36c1.69-6.33,3.31-12.68,5.13-19,.57-2,.24-2.88-1.82-3.31-2.63-.56-5.21-1.35-7.81-2-.17-1.06.74-1.08,1.34-1.4,1.68.51,3.33,1.16,5,1.5,3.27.66,5.32-.26,6.38-3.93,2.62-9,7.83-16.91,12.44-25,2.68-4.7,7.21-7.61,12.53-9.18.26.93.06,1.39-.4,1.62-8.21,4.09-12.08,11.53-15.11,19.6-2,5.36-3.55,10.87-5.09,16.38-.5,1.79-.13,2.35,1.73,2.51,6.43.56,12.85,1.28,19.27,1.94l.74,1.39a70.35,70.35,0,0,1-11.15-.27c-1.24-.79-2.57-.55-3.9-.34a36,36,0,0,1-5.2-.34c-2.33-.47-3.06.41-3.32,2.61-.31,2.71-1.15,5.36-1.52,8.06-.82,6-2.71,11.87-2.65,18,0,2.75,1.08,3.71,3.7,2.41,1.89-.94,4-1.58,5.67-2.8,2.89-2.08,6.16-4.18,6.26-8.29.12-5.33,2.79-9.46,5.9-13.36,2.62-3.27,8.27-5.19,11-3.1,3.52,2.73,6.5,2.3,9.89.48a13,13,0,0,1,1.42-.43,2.28,2.28,0,0,1,3,.8c.8,1.09-.05,1.74-.59,2.59a13.36,13.36,0,0,0-1.25,3.07c-1.89,5.83-1.24,12.13-3.27,17.94-.6.83-.66,1.58.3,2.2l2.23-.1,0,1.62-.88,1.13c-2,.58-4.08,1.89-6.11.86-2.5-1.26-2.4-4.22-3.08-6.58-1.57.41-2.25,2.61-4.16,1.29,3.58-4.8,5-10.39,5.8-16.19.27-1.92,0-3.91-1.9-4.86s-3.47.42-4.85,1.74c-5.11,4.85-6,11.28-6.3,17.75-.17,3.73,2.21,4.82,5.5,3,.56-.31,1.12-.8,1.61-.19.63.79-.06,1.39-.65,1.81-1.48,1.07-3,2.06-4.51,3.09h-3.63l-3.79-2.85-.28-.75-.47-.75c-.28-3.13-1.2-3.86-3.89-1.51a33.31,33.31,0,0,1-8.76,5.4c-4.53,1.95-7.51.85-9.83-3.83Z"/><path class="cls-3" d="M177.33,214.79c4.29-3.51,9-4.56,14.24-2.36a5.05,5.05,0,0,1,2.93,2.73c.6,1.43,2.22,3.51,1,4.32-1.87,1.22-1.75-1.66-2.63-2.58-2.46-2.54-7.48-3.16-10.23-.82-1.82,1.55.21,2,1,2.51,3.68,2.26,6.9,4.92,8.67,9,2.82,6.45-.38,13-7.25,14.71-3.24.81-6.55,1.36-10.22,2.11,1.76,2,3.45,3.7,4.88,5.59a43.17,43.17,0,0,1,6.06,12.33c2.34,6.83,3.74,7.14,8.73,2.36a1.37,1.37,0,0,1,.73,1.39c-1.49,4-4.83,5.88-8.52,7.21-3.46,1.26-4.79-1.46-5.71-3.86-1.69-4.38-3-8.93-4.47-13.39-1.27-3.77-2.76-7.46-5.5-10.45-1.45-1.6-2.81-2.42-3.87.58-3.85,10.86-9.61,20.71-16.3,30-4.77,6.66-11.41,10.54-19.29,12.42-.42.09-1.2,0-1.33-.31-.32-.63.09-1,.77-1.34,12.57-6.31,18.14-18.26,24.08-29.93,4.35-8.55,7.29-17.67,10.8-26.56a33.67,33.67,0,0,1,6.52-10.7,5.86,5.86,0,0,0,1.94-3.09C174.28,214.4,176.83,216.22,177.33,214.79Zm-8,25.76a44,44,0,0,0,7.11-.17c5.58-.38,7.8-4.4,9.43-8.76s-.69-7.89-3.64-11c-1.7-1.77-3.07-1.87-4.78.33C173,226.73,171,233.38,169.33,240.55Z"/><path class="cls-1" d="M271.54,194.26c4.37-3.5,3.58-9,5.15-13.55.64-1.87.63-3.94,1.14-5.86s.36-4.39,3.23-4.1c2.11.22,4.75,4.2,4.29,6.18-1.12,4.85-2.57,9.63-3.15,14.6-.11,1-.27,2-.35,3-.1,1.27-.16,2.67,1.15,3.3,1.14.54,2.22-.28,3-1,3.26-3,6.35-5.83,6.63-11.05a17.67,17.67,0,0,1,9-15c3.33-1.92,6.58-1.66,9.2,1,1.42,1.45,2.43,1.66,4.05.68a11.2,11.2,0,0,1,2.8-1c3.63-1,4.46-.13,3.66,3.57-1.27,5.82-2.68,11.63-2.53,17.65,0,1.48-.13,3.25,1.6,3.83s2.92-.51,3.84-1.74c1.89-2.53,3.66-5.15,5.78-8.17-.16,5.55-4.35,11.47-8.64,12.81-3.52,1.1-7.6-.66-10.13-4.54-2.84,3.72-5.59,7.67-11.18,6.22-3.77-1-6.65-2.88-7-7.49-2.53,1.95-4.75,3.91-7.22,5.49-3.21,2.06-9.22.73-10.32-2.65-1.2-3.7-2.35-1.37-3.7-.52l-.28-.75Zm27.12-2.78a7.19,7.19,0,0,0,2.67,6.42c1.51,1.39,3.07,1.35,4.63-.08,4.71-4.33,7.36-15,5.15-20.83-1.23-3.26-3.18-3.82-5.52-1.38C301.4,180,298.76,185.06,298.66,191.48Z"/><path class="cls-4" d="M248.39,198.85l0-1.62c3.29-2.83,6.88-5.69,8-9.93,1.73-6.27,2.67-12.75,4-19.14l0-1.42c2.51-2.11,3.18-5.27,4.21-8.1a95.78,95.78,0,0,1,12-22.65c5.43-7.65,12.9-12.72,22.6-13.42,11.45-.83,18,6.28,18.78,17.48,1.16,15.72-6.31,20.76-20.55,24.33-1.79.45-3.67.55-5.51.82a1.44,1.44,0,0,0-1.59.41l-2.21.33c-1.82-.19-3.66-.59-5.39.4l-1.28.09-.06-1.18,2.25-.08,1.38-.35c2.44-.39,4.91-.66,7.32-1.17,9.88-2.08,18.35-5.89,22.09-16.46,2.41-6.79-1.76-21.81-12.5-22.49-6.51-.41-12.23,2.11-16.85,6.57-9.77,9.43-12.85,22-15.83,34.62-.67.63-.49,1.5-.63,2.27a155,155,0,0,0-5.17,25.31c-.22,1.59-.36,3.21.64,4.66.32,1.17,2,.27,2.28,1.47-6.05,3.12-9.53,1.06-11-6.86A23.91,23.91,0,0,1,248.39,198.85Z"/><path class="cls-2" d="M195.2,266.06a1.37,1.37,0,0,0-.73-1.39c2.67-.94,2.51-2.93,2.37-5.29-.53-9.3,8.51-19.17,17.7-19.55,5.28-.23,8.27,3.91,6.4,8.87a10,10,0,0,1-4.64,5.62,49.06,49.06,0,0,1-10.17,4.46c-1.78.48-4.43.35-4.21,3.23.23,3.07.42,6.25,4.11,7.66,6.76,2.57,13.49-.49,17.33-8.1,1.65-3.25,2.32-6.82,3.13-10.32a37.75,37.75,0,0,1,3.26-8.28c1.14-2.3,2.49-2,3.91-.19,2,2.64,1.41,5.41.36,8.14-1.7,4.38-3.57,8.69-4.44,13.37-.71,3.83-.82,3.81,3.08,2.65l.68,1.26a14.38,14.38,0,0,1-5.2,3.27l-1.33-.16-.94-.54-.08,0c-.09-.36-.28-.49-.63-.29l-.83-.49-.87-3.37-2.8,2.56c-3.89,2.94-7.87,5.34-13.15,4.62-4.76-.65-8.17-2.84-9.6-7.42C197,263.52,196.27,264.54,195.2,266.06Zm8.11-8.92c1.65-.33,2.74-.44,3.76-.76,4.91-1.55,8.42-5.49,8.4-9.33,0-3.21-1-3.84-3.83-2.23C207,247.44,205.65,252.31,203.31,257.14Z"/><path class="cls-3" d="M189.3,199c-4.48,4-8.13,3.77-11.25-1.15-1.21-1.92-1.87-.84-2.75,0a14.19,14.19,0,0,1-9.78,3.76c-3,0-4.64-1.37-5-3.88-1.37-9.08-.38-17.73,6.75-24.38,4.06-3.8,10.47-4.84,14.14,1.4,2-1.13,3.45-3.25,6-3.67,2.24-.38,3.39,0,2.64,2.68-1.55,5.49-3,11-4.39,16.54a23,23,0,0,0-.67,4c-.3,4.34.33,4.79,4.29,3.21C189.25,198,189.28,198.45,189.3,199Zm-9.63-17.72c-.15-.95-.26-1.44-.3-1.93-.2-2.25-.29-5-2.76-5.56-2.7-.66-4.4,1.41-5.81,3.69a30.65,30.65,0,0,0-4.2,14.12c-.2,2.47-.51,4.85,2.32,5.94s4.86-.51,6.3-2.64C178.06,190.62,178.76,185.66,179.67,181.23Z"/><path class="cls-4" d="M262.59,272.35c-6.52-1.39-9.22-5.94-10.18-13.67-1.13-9,5.24-17.68,14-19.79a8.92,8.92,0,0,1,9.86,4.29c1.95,3.34.17,6-1.86,8.43-2.83,3.4-6.84,4.67-10.89,6-2,.68-5.74-.76-5.69,3.55.05,3.95,2.69,7.89,6.12,8.88,7.06,2,14-3.39,14.09-11.07,0-1.77-.19-3.51,1.21-4.87.72-.7,1.6-1.35,2.66-.94s1.2,1.62,1,2.56c-1.23,6.89-4.1,12.74-10.67,16.11-.37-.22-.59-.06-.73.29l-2.24.3-1,.31h-4.8Zm8.07-27.64c.07-2.62-1.58-3.45-4.21-2.12-3.42,1.72-7.29,8.62-7.07,12.42.06,1.16.42,1.49,1.57,1.28C265.2,255.51,270.54,249.18,270.66,244.71Z"/><path class="cls-5" d="M151.17,237.71h1.31a46,46,0,0,1-8.21,20.21c-.25-.55-.5-1.09-.74-1.64C146.35,250.21,149.54,244.28,151.17,237.71Z"/><path class="cls-5" d="M260.38,166.74l0,1.42c-9.48-.37-19,.6-28.45-.08l-.74-1.39C240.9,166.63,250.64,166.25,260.38,166.74Z"/><path class="cls-6" d="M177.33,214.79c-.5,1.43-3.05-.39-3,1.89-2.53-2.41-6.13-2.21-9-3.71l0-1.33C169.48,211.94,173.17,214.27,177.33,214.79Z"/><path class="cls-5" d="M194.37,161.25c-.6.32-1.51.34-1.34,1.4-3.85-1.45-7.8-2.69-11.22-5.08.29-.69,1-.55,1.51-.69Z"/><path class="cls-7" d="M189.3,199c0-.5-.05-1-.07-1.49l4.3-3.93.87-1,2.31-3.49c-.32,1.6.73,2.94.8,4.46-1.89-1.3-1.9,1.3-3.07,1.48-1.34-.61-1.16.51-1.37,1.2A5.43,5.43,0,0,1,189.3,199Z"/><path class="cls-8" d="M281.38,165.25l.06,1.18c-4.27.64-8.65.48-12.83,1.73.14-.77,0-1.64.63-2.27C273.31,166.18,277.34,165.52,281.38,165.25Z"/><path class="cls-9" d="M183.32,156.88c-.55.14-1.22,0-1.51.69-2.87-1-5.1-2.94-7.54-4.57l.4-.82Z"/><path class="cls-6" d="M266.36,199.6c-.3-1.2-2-.3-2.28-1.47,2.82.23,4.37-2.31,6.73-3.08l1,.95A12.31,12.31,0,0,1,266.36,199.6Z"/><path class="cls-5" d="M237.94,264.11a11.09,11.09,0,0,1-4.6,4.09l-.68-1.26a20.43,20.43,0,0,1,5.26-5.23Z"/><path class="cls-8" d="M282.72,166.34c1.73-1,3.57-.59,5.39-.4A14.2,14.2,0,0,1,282.72,166.34Z"/><path class="cls-1" d="M306.35,263.07a5.47,5.47,0,0,1-.51-.45c-.19-.22-.36-.47-.53-.7,0,.15,0,.3,0,.44s0,.3.08.33a7.76,7.76,0,0,0,.84.34S306.35,263.07,306.35,263.07Z"/><path class="cls-6" d="M160,212.32c1.06-.22,2.12-.45,3,.38A4.91,4.91,0,0,1,160,212.32Z"/><path class="cls-3" d="M193.07,196.19c.21-.69,0-1.81,1.37-1.2Z"/><path class="cls-7" d="M197.53,187a1.18,1.18,0,0,1-.55,1.36Z"/><path class="cls-7" d="M290.32,165.61a1.44,1.44,0,0,1,1.59-.41A1.59,1.59,0,0,1,290.32,165.61Z"/><path class="cls-3" d="M194.4,192.54l-.87,1Z"/><path class="cls-10" d="M220.69,197.3l.47.75Z"/><path class="cls-7" d="M197.93,196.62l.28.74Z"/><path class="cls-1" d="M271.81,196l-1-.95h0l.8,0,.28.75Z"/><path class="cls-6" d="M271.6,195.09l-.8,0,.74-.79Z"/><path class="cls-11" d="M225.16,270.45c.35-.2.54-.07.63.29Z"/><path class="cls-12" d="M271.59,272.16c.14-.35.36-.51.73-.29Z"/><path class="cls-12" d="M262.59,272.35l1,.43A.73.73,0,0,1,262.59,272.35Z"/><path class="cls-12" d="M268.37,272.77l1-.31A.69.69,0,0,1,268.37,272.77Z"/><path class="cls-4" d="M225,277.26l.13-.11Z"/><path class="cls-11" d="M225.87,270.77l.94.54A.69.69,0,0,1,225.87,270.77Z"/><path class="cls-5" d="M151.08,231.7l-.37-1.42A1.22,1.22,0,0,1,151.08,231.7Z"/><path class="cls-5" d="M151.32,234.74l.08-1.49C152,233.78,152,234.28,151.32,234.74Z"/><path class="cls-9" d="M220.75,167.81a5.28,5.28,0,0,1-3.9-.34C218.18,167.26,219.51,167,220.75,167.81Z"/><path class="cls-4" d="M245.82,195.13l.3,2.2C245.16,196.71,245.22,196,245.82,195.13Z"/><path class="cls-7" d="M283.63,165.17l1.38-.35Z"/></svg>